# xmcd
#
# Track frame offsets:
#	150
#	23534
#	55372
#	64774
#	75869
#	97422
#	119739
#
# Disc length: 2307 seconds
#
# Revision: 1
# Processed by: cddbd v1.5.2PL0 Copyright (c) Steve Scherf et al.
# Submitted via: audiograbber 1.83.01
#
DISCID=58090107
DTITLE=Livin' Blues - Wang Dang Doodle
DYEAR=1970
DGENRE=Blues
TTITLE0=Wang Dang Doodle
TTITLE1=I Came Home At Night
TTITLE2=Whiskey And Gin
TTITLE3=This Is The Hour
TTITLE4=When The Sun Goes Down
TTITLE5=Go-Go-Train
TTITLE6=Spoonful
EXTD=
EXTT0=
EXTT1=
EXTT2=
EXTT3=
EXTT4=
EXTT5=
EXTT6=
PLAYORDER=
